<svg width="17" height="16" viewBox="0 0 17 16" fill="none" xmlns="http://www.w3.org/2000/svg">
<path d="M8.5 16C12.9183 16 16.5 12.4183 16.5 8C16.5 3.58172 12.9183 0 8.5 0C4.08172 0 0.5 3.58172 0.5 8C0.5 12.4183 4.08172 16 8.5 16Z" fill="#CC4C1D"/>
<path fill-rule="evenodd" clip-rule="evenodd" d="M4.12126 7.91555C6.45342 6.89946 8.00857 6.2296 8.78668 5.90595C11.0084 4.98188 11.47 4.82136 11.7709 4.81606C11.8371 4.81489 11.9851 4.83129 12.0809 4.90907C12.1618 4.97474 12.1841 5.06345 12.1948 5.12572C12.2054 5.18798 12.2187 5.32982 12.2081 5.44065C12.0878 6.70564 11.5668 9.77543 11.3018 11.1922C11.1896 11.7917 10.9688 11.9928 10.7551 12.0124C10.2905 12.0552 9.93771 11.7054 9.48774 11.4104C8.78364 10.9489 8.38586 10.6616 7.70241 10.2112C6.91256 9.69069 7.42459 9.40462 7.87472 8.93709C7.99252 8.81474 10.0394 6.9529 10.0791 6.784C10.084 6.76288 10.0886 6.68414 10.0418 6.64256C9.99507 6.60099 9.92603 6.6152 9.87621 6.62651C9.80559 6.64254 8.68077 7.386 6.50176 8.85689C6.18249 9.07613 5.8933 9.18295 5.63419 9.17735C5.34855 9.17118 4.79909 9.01585 4.39062 8.88307C3.88962 8.72022 3.49144 8.63411 3.52611 8.35754C3.54417 8.21348 3.74256 8.06615 4.12126 7.91555Z" fill="#202020"/>
</svg>
