<svg width="17" height="16" viewBox="0 0 17 16" fill="none" xmlns="http://www.w3.org/2000/svg">
<path d="M5.85161 12.8832C5.85161 12.9493 5.77742 13.0023 5.68387 13.0023C5.57742 13.0122 5.50323 12.9593 5.50323 12.8832C5.50323 12.817 5.57742 12.7641 5.67097 12.7641C5.76774 12.7541 5.85161 12.8071 5.85161 12.8832ZM4.84839 12.7343C4.82581 12.8005 4.89032 12.8766 4.9871 12.8964C5.07097 12.9295 5.16774 12.8964 5.1871 12.8302C5.20645 12.7641 5.14516 12.688 5.04839 12.6582C4.96452 12.635 4.87097 12.6681 4.84839 12.7343ZM6.27419 12.6781C6.18064 12.7012 6.11613 12.7641 6.12581 12.8402C6.13548 12.9063 6.21935 12.9493 6.31613 12.9262C6.40968 12.903 6.47419 12.8402 6.46452 12.774C6.45484 12.7111 6.36774 12.6681 6.27419 12.6781ZM8.39677 0C3.92258 0 0.5 3.48382 0.5 8.07266C0.5 11.7418 2.75161 14.8815 5.96774 15.9865C6.38064 16.0626 6.52581 15.8012 6.52581 15.5862C6.52581 15.3811 6.51613 14.2496 6.51613 13.5548C6.51613 13.5548 4.25806 14.0511 3.78387 12.5689C3.78387 12.5689 3.41613 11.6061 2.8871 11.358C2.8871 11.358 2.14839 10.8385 2.93871 10.8485C2.93871 10.8485 3.74194 10.9146 4.18387 11.7021C4.89032 12.9791 6.07419 12.6119 6.53548 12.3935C6.60968 11.8642 6.81936 11.4969 7.05161 11.2786C5.24839 11.0734 3.42903 10.8055 3.42903 7.62271C3.42903 6.71288 3.67419 6.25631 4.19032 5.67402C4.10645 5.45897 3.83226 4.5723 4.27419 3.42757C4.94839 3.21252 6.5 4.32086 6.5 4.32086C7.14516 4.13559 7.83871 4.03964 8.52581 4.03964C9.2129 4.03964 9.90645 4.13559 10.5516 4.32086C10.5516 4.32086 12.1032 3.20921 12.7774 3.42757C13.2194 4.57561 12.9452 5.45897 12.8613 5.67402C13.3774 6.25962 13.6935 6.71619 13.6935 7.62271C13.6935 10.8154 11.7935 11.0701 9.99032 11.2786C10.2871 11.5399 10.5387 12.0362 10.5387 12.8137C10.5387 13.9287 10.529 15.3083 10.529 15.5796C10.529 15.7946 10.6774 16.056 11.0871 15.9799C14.3129 14.8815 16.5 11.7418 16.5 8.07266C16.5 3.48382 12.871 0 8.39677 0ZM3.63548 11.4109C3.59355 11.444 3.60323 11.5201 3.65806 11.5829C3.70968 11.6359 3.78387 11.659 3.82581 11.616C3.86774 11.5829 3.85806 11.5069 3.80323 11.444C3.75161 11.3911 3.67742 11.3679 3.63548 11.4109ZM3.2871 11.1429C3.26452 11.1859 3.29677 11.2389 3.36129 11.272C3.4129 11.305 3.47742 11.2951 3.5 11.2488C3.52258 11.2058 3.49032 11.1528 3.42581 11.1198C3.36129 11.0999 3.30968 11.1098 3.2871 11.1429ZM4.33226 12.3207C4.28065 12.3637 4.3 12.463 4.37419 12.5259C4.44839 12.602 4.54194 12.6119 4.58387 12.5589C4.62581 12.5159 4.60645 12.4167 4.54194 12.3538C4.47097 12.2777 4.37419 12.2678 4.33226 12.3207ZM3.96452 11.8344C3.9129 11.8675 3.9129 11.9535 3.96452 12.0296C4.01613 12.1057 4.10323 12.1388 4.14516 12.1057C4.19677 12.0627 4.19677 11.9767 4.14516 11.9006C4.1 11.8245 4.01613 11.7914 3.96452 11.8344Z" fill="#CC4C1D"/>
</svg>
