<svg width="17" height="16" viewBox="0 0 17 16" fill="none" xmlns="http://www.w3.org/2000/svg">
<path d="M16.5 8C16.5 12.4183 12.9183 16 8.5 16C4.08172 16 0.5 12.4183 0.5 8C0.5 3.58172 4.08172 0 8.5 0C12.9183 0 16.5 3.58172 16.5 8Z" fill="#CC4C1D" />
<path d="M7.22 10.4V15.84C7.22 15.9284 7.29163 16 7.38 16H9.62C9.70837 16 9.78 15.9284 9.78 15.84V10.4C9.78 10.3116 9.85163 10.24 9.94 10.24H11.54C11.6284 10.24 11.7 10.1684 11.7 10.08V8.16C11.7 8.07163 11.6284 8 11.54 8H9.94C9.85163 8 9.78 7.92847 9.78 7.84011V6.4C9.78 5.76 10.58 5.44 10.9 5.44H11.86C11.9484 5.44 12.02 5.36837 12.02 5.28V3.36C12.02 3.27163 11.9484 3.2 11.86 3.2H9.78C8.244 3.2 7.22 4.8 7.22 5.76V7.84C7.22 7.92837 7.14837 8 7.06 8H5.46C5.37163 8 5.3 8.07163 5.3 8.16V10.08C5.3 10.1684 5.37163 10.24 5.46 10.24H7.06C7.14837 10.24 7.22 10.3116 7.22 10.4Z" fill="#202020" />
</svg>
