<svg width="17" height="16" viewBox="0 0 17 16" fill="none" xmlns="http://www.w3.org/2000/svg">
<path d="M16.5 8.06225C16.5 7.50616 16.4559 6.94707 16.3618 6.4H8.8132V9.55015H13.1359C12.9565 10.5661 12.2194 11.5889 11.3755 12.16L11.5362 14.08H13.9377C15.4522 12.6552 16.5 10.5511 16.5 8.06225Z" fill="#CC4C1D"/>
<path d="M8.61813 16C10.7825 16 12.6078 15.2989 13.9377 14.0887L11.3755 12.16C10.656 12.6429 9.70328 12.8669 8.62108 12.8669C6.52744 12.8669 4.64589 11.4735 4.00895 9.6H1.44669V11.6393C2.80903 14.3127 5.58383 16 8.61813 16Z" fill="#CC4C1D"/>
<path d="M4.00895 9.6C3.64184 8.62638 3.80198 7.37362 4.16909 6.4L4.32924 4.48L1.44668 4.32C0.203652 6.53512 0.175081 9.30488 1.41811 11.52L4.00895 9.6Z" fill="#CC4C1D"/>
<path d="M8.77261 3.13194C9.94139 3.11449 11.071 3.53899 11.9175 4.31821L14.258 2.05906C12.776 0.715785 10.8089 -0.022727 8.77261 0.000533237C5.67295 0.000533237 2.83836 1.64507 1.44668 4.32L4.16909 6.4C4.81674 4.52465 6.63388 3.13194 8.77261 3.13194Z" fill="#CC4C1D"/>
</svg>
