<svg width="17" height="16" viewBox="0 0 17 16" fill="none" xmlns="http://www.w3.org/2000/svg">
<path d="M0.5 7.68C0.5 4.0596 0.5 2.24942 1.62471 1.12471C2.74942 0 4.5596 0 8.18 0H8.82C12.4404 0 14.2506 0 15.3753 1.12471C16.5 2.24942 16.5 4.0596 16.5 7.68V8.32C16.5 11.9404 16.5 13.7506 15.3753 14.8753C14.2506 16 12.4404 16 8.82 16H8.18C4.5596 16 2.74942 16 1.62471 14.8753C0.5 13.7506 0.5 11.9404 0.5 8.32V7.68Z" fill="#CC4C1D"/>
<path d="M8.98568 11.52C5.2684 11.52 3.14816 8.99753 3.05981 4.80005H4.92185C4.98301 7.88089 6.35572 9.18587 7.44304 9.45494V4.80005H9.19641V7.45711C10.2701 7.34275 11.3981 6.13194 11.7787 4.80005H13.532C13.2398 6.44137 12.0165 7.65218 11.1467 8.14996C12.0165 8.55356 13.4097 9.60966 13.9398 11.52H12.0098C11.5952 10.242 10.5624 9.25314 9.19641 9.11861V11.52H8.98568Z" fill="#202020"/>
</svg>
